<svg version="1.1" xmlns="http://www.w3.org/2000/svg" xmlns:xlink="http://www.w3.org/1999/xlink" width="48" height="48"><defs><linearGradient x1="10.46951" y1="11.82256" x2="58.39014" y2="57.03709" gradientUnits="userSpaceOnUse" id="color-1"><stop offset="0" stop-color="#000000" stop-opacity="0.12"></stop><stop offset="1" stop-color="#000000" stop-opacity="0"></stop></linearGradient><filter id="dropshadow-base"><feColorMatrix type="matrix" values="0 0 0 0 0  0 0 0 0 0  0 0 0 0 0  0 0 0 .8 0"></feColorMatrix> <feOffset dx="0" dy="1"></feOffset> <feGaussianBlur stdDeviation="1"></feGaussianBlur> <feComposite in="SourceGraphic"></feComposite></filter><filter id="dropshadow-banner" x="-10%" y="-10%" width="120%" height="130%"><feColorMatrix type="matrix" values="0 0 0 0 0  0 0 0 0 0  0 0 0 0 0  0 0 0 .4 0"></feColorMatrix> <feOffset dx="0" dy="1"></feOffset> <feGaussianBlur stdDeviation="0.5"></feGaussianBlur> <feComposite in="SourceGraphic"></feComposite></filter></defs><g fill="none" fill-rule="nonzero" stroke="none" stroke-width="none" stroke-linecap="butt" stroke-linejoin="miter" stroke-miterlimit="10" stroke-dasharray="" stroke-dashoffset="0" font-family="none" font-weight="none" font-size="none" text-anchor="none" style="mix-blend-mode: normal"><path d="M2,24c0,-12.15026 9.84974,-22 22,-22c12.15026,0 22,9.84974 22,22c0,12.15026 -9.84974,22 -22,22c-12.15026,0 -22,-9.84974 -22,-22z" id="base 1 5" fill="#41748c" stroke-width="1"></path><path d="M10.46951,30.76525v-8.1183c0,-2.2393 1.81985,-4.05915 4.05915,-4.05915h2.7061l-1.35305,-1.35305v-5.4122h16.23659l13.82122,13.82122c-0.80067,10.83987 -9.45587,19.49507 -20.29574,20.29574z" fill="url(#color-1)" stroke-width="1"></path><path d="M33.47135,18.5878h-18.94269c-2.2393,0 -4.05915,1.81985 -4.05915,4.05915v8.1183h5.4122v5.4122h16.23659v-5.4122h5.4122v-8.1183c0,-2.2393 -1.81985,-4.05915 -4.05915,-4.05915zM29.4122,33.47135h-10.8244v-6.76525h10.8244zM33.47135,24c-0.75094,0 -1.35305,-0.60211 -1.35305,-1.35305c0,-0.75094 0.60211,-1.35305 1.35305,-1.35305c0.75094,0 1.35305,0.60211 1.35305,1.35305c0,0.75094 -0.60211,1.35305 -1.35305,1.35305zM32.1183,11.82256h-16.23659v5.4122h16.23659z" fill="none" stroke-width="0"></path><path d="M37.53049,22.64695v8.1183h-5.4122v5.4122h-16.23659v-5.4122h-5.4122v-8.1183c0,-2.2393 1.81985,-4.05915 4.05915,-4.05915h18.94269c2.2393,0 4.05915,1.81985 4.05915,4.05915zM29.4122,26.7061h-10.8244v6.76525h10.8244zM34.8244,22.64695c0,-0.75094 -0.60211,-1.35305 -1.35305,-1.35305c-0.75094,0 -1.35305,0.60211 -1.35305,1.35305c0,0.75094 0.60211,1.35305 1.35305,1.35305c0.75094,0 1.35305,-0.60211 1.35305,-1.35305zM32.1183,17.23475h-16.23659v-5.4122h16.23659z" fill="#ffffff" stroke-width="0"></path><path d="M2,24c0,-12.15026 9.84974,-22 22,-22c12.15026,0 22,9.84974 22,22c0,12.15026 -9.84974,22 -22,22c-12.15026,0 -22,-9.84974 -22,-22z" id="base 1 1 1" fill="none" stroke-width="1"></path><g fill="#000000" stroke-width="1" font-family="Roboto, sans-serif" font-weight="400" font-size="14" text-anchor="start"></g><rect x="2" y="2" width="44" height="22" fill="none" stroke-width="1"></rect><path d="M2,24v-22h44v22z" fill="none" stroke-width="1"></path><path d="M2,24v-22h44v22z" fill="none" stroke-width="1"></path><path d="M2,24v-22h44v22z" fill="none" stroke-width="1"></path><path d="M2,24v-22h44v22z" fill="none" stroke-width="1"></path></g></svg>